<svg width="26" height="29" viewBox="0 0 26 29" fill="none" xmlns="http://www.w3.org/2000/svg">
<g clip-path="url(#clip0_4074_220789)">
<path d="M6.44999 0.481445C7.73924 0.475278 9.02872 0.49492 10.3182 0.486469C12.236 0.467742 14.1538 0.499031 16.0715 0.506339C16.5587 0.504969 17.0456 0.517987 17.5328 0.515932C18.2399 0.516845 18.9472 0.509994 19.6543 0.518672C19.6543 1.51239 19.6287 2.50588 19.6282 3.4996C19.5622 3.50919 19.4958 3.50965 19.4295 3.50828C18.0592 3.50942 16.6891 3.50851 15.319 3.50828C15.065 3.50988 14.8108 3.50417 14.5571 3.5165C14.5457 3.5953 14.5464 3.675 14.5455 3.75448C14.5493 5.72068 14.545 7.68665 14.5471 9.65285C14.0124 9.65376 13.4777 9.65376 12.9431 9.65422C12.4715 9.65422 11.9998 9.65445 11.5282 9.65422C11.5239 7.60786 11.528 5.56149 11.5239 3.51536C11.2893 3.50211 11.0543 3.51056 10.8197 3.50828C9.42635 3.50988 8.03295 3.50782 6.63955 3.50828C6.57537 3.50919 6.5112 3.51102 6.44793 3.49983C6.45273 2.49378 6.43834 1.4875 6.44999 0.481445Z" fill="#26A69A"/>
<path d="M0.246094 0.526469C1.98185 0.526469 3.7176 0.52624 5.45336 0.526469C5.45724 1.5179 5.4481 2.5098 5.4577 3.50123C5.40425 3.52042 5.34738 3.51242 5.29211 3.51288C4.60352 3.51471 3.91493 3.51379 3.22634 3.51379C3.24712 7.42335 3.222 11.3327 3.23547 15.242C3.22862 16.0288 3.44239 16.8042 3.77424 17.5131C4.12893 18.267 4.61243 18.9538 5.15006 19.5876C5.63698 20.1645 6.18306 20.6884 6.74786 21.1881C8.60352 22.825 10.7337 24.1183 12.9351 25.2333C12.9687 25.25 13.0027 25.266 13.0365 25.2831C15.1083 24.2346 17.1199 23.0376 18.9057 21.5453C20.0115 20.6199 21.05 19.5885 21.8236 18.3634C22.2822 17.6348 22.6394 16.83 22.7773 15.9761C22.8554 15.5375 22.8342 15.0913 22.8383 14.6484C22.847 10.9371 22.8296 7.22557 22.8447 3.51425C22.2319 3.51379 21.6192 3.51425 21.0066 3.51356C20.876 3.50671 20.7431 3.52795 20.6147 3.50146C20.6257 3.23584 20.6154 2.96977 20.6188 2.70415C20.6179 1.97811 20.6186 1.25229 20.6195 0.526469C22.3566 0.526469 24.094 0.52624 25.8311 0.526469C25.8316 5.39412 25.8309 10.2615 25.8316 15.1292C25.8284 15.2205 25.8133 15.3112 25.8128 15.403C25.7994 15.9692 25.7171 16.5331 25.5817 17.0826C25.2151 18.5607 24.4596 19.9203 23.5102 21.1022C23.0292 21.6986 22.5035 22.2577 21.9556 22.7928C20.7513 23.9621 19.4118 24.9867 18.0008 25.8936C16.5453 26.8289 15.0139 27.6417 13.4474 28.3744C13.3303 28.4337 13.198 28.4616 13.0879 28.5345H13.0486C12.9954 28.487 12.9205 28.4831 12.8563 28.4593C12.6595 28.4047 12.4816 28.3026 12.2959 28.2207C9.87405 27.0826 7.54699 25.7145 5.47665 24.0119C4.42081 23.1411 3.42161 22.1926 2.56972 21.1184C1.66713 19.979 0.918927 18.693 0.537061 17.2824C0.396145 16.7656 0.305932 16.2348 0.2735 15.6999C0.271217 15.6175 0.268704 15.5346 0.246094 15.4549V0.526469Z" fill="url(#paint0_linear_4074_220789)"/>
<path d="M14.9266 7.86584C15.7636 7.92545 16.5993 8.01978 17.4229 8.18285C18.1508 8.32513 18.8786 8.51218 19.5455 8.84381C19.8463 8.9966 20.1434 9.20443 20.294 9.51641C20.312 9.62512 20.3035 9.73955 20.2985 9.84986C20.1905 10.0993 19.9799 10.2861 19.7504 10.4233C19.4293 10.6214 19.0746 10.7566 18.7176 10.8749C18.2069 11.0411 17.681 11.156 17.1531 11.2517C16.296 11.4004 15.4293 11.4949 14.5605 11.5367C14.5356 11.7274 14.5491 11.9211 14.547 12.113C14.5479 14.1851 14.5466 16.2571 14.5475 18.3292C14.0128 18.3386 13.4781 18.3279 12.9435 18.3322C12.4721 18.3327 12.0007 18.3338 11.5293 18.329C11.5119 17.27 11.5375 16.2109 11.5167 15.1519C11.5094 14.641 11.5282 14.1303 11.5243 13.6194C11.525 12.9256 11.5243 12.2317 11.5243 11.5381C10.473 11.4602 9.41945 11.3579 8.39033 11.1218C7.89564 11.0096 7.40392 10.8751 6.93641 10.6762C6.62694 10.5416 6.31542 10.3866 6.07927 10.1397C5.95343 10.0106 5.86001 9.83273 5.88217 9.64796C5.9025 9.43328 6.04912 9.25742 6.20922 9.12495C6.47735 8.90867 6.79275 8.75999 7.11227 8.63643C7.51423 8.48478 7.9283 8.36739 8.34694 8.27169C9.26346 8.06454 10.1983 7.94532 11.1351 7.88001C11.1372 7.98918 11.1365 8.09857 11.1342 8.20774C10.3019 8.2605 9.47015 8.34135 8.65001 8.49437C8.17176 8.58321 7.69261 8.68964 7.24291 8.87852C7.07047 8.95229 6.89827 9.04273 6.77517 9.18776C6.69432 9.2798 6.68587 9.42825 6.76124 9.52577C6.88685 9.69181 7.08075 9.78385 7.26712 9.86447C7.61769 10.009 7.98631 10.1043 8.35653 10.1826C8.86904 10.29 9.38816 10.3624 9.90843 10.4208C10.9161 10.5332 11.9304 10.5786 12.9439 10.5807C14.0178 10.5871 15.0926 10.5487 16.1608 10.4329C16.9711 10.342 17.7856 10.2349 18.5669 9.99306C18.8332 9.90604 19.1056 9.81149 19.3272 9.63426C19.4268 9.55387 19.5142 9.42094 19.4683 9.28871C19.4069 9.12358 19.2429 9.03108 19.0967 8.95092C18.7421 8.76981 18.3526 8.67137 17.9671 8.58047C17.5161 8.4793 17.0586 8.40941 16.6002 8.35094C16.0462 8.28151 15.4898 8.22738 14.9316 8.20455C14.9273 8.09172 14.9254 7.97867 14.9266 7.86584Z" fill="#26A69A"/>
<path d="M3.22656 3.51388C3.91515 3.51388 4.60375 3.51479 5.29234 3.51297C5.34761 3.51251 5.40448 3.5205 5.45792 3.50132C5.55499 3.48807 5.65388 3.49881 5.75163 3.49561C5.98413 3.49858 6.21708 3.48944 6.44913 3.49995C6.51239 3.51114 6.57657 3.50931 6.64074 3.5084C8.03414 3.50794 9.42754 3.51 10.8209 3.5084C11.0555 3.51068 11.2905 3.50223 11.5251 3.51548C11.5292 5.56161 11.5251 7.60798 11.5294 9.65434C12.001 9.65457 12.4726 9.65434 12.9443 9.65434C12.9454 9.96312 12.9443 10.2719 12.9447 10.5807C11.9311 10.5786 10.9169 10.5332 9.90921 10.4208C9.38895 10.3623 8.86982 10.2899 8.35731 10.1826C7.9871 10.1043 7.61848 10.009 7.2679 9.86446C7.08154 9.78383 6.88763 9.69179 6.76202 9.52576C6.68665 9.42823 6.6951 9.27978 6.77595 9.18774C6.89905 9.04271 7.07126 8.95227 7.24369 8.8785C7.69339 8.68962 8.17255 8.5832 8.65079 8.49435C9.47094 8.34133 10.3027 8.26048 11.135 8.20772C11.1373 8.09855 11.1379 7.98916 11.1359 7.87999C10.199 7.94531 9.26425 8.06453 8.34772 8.27167C7.92909 8.36737 7.51502 8.48476 7.11305 8.63641C6.79354 8.75997 6.47813 8.90865 6.21 9.12493C6.0499 9.2574 5.90328 9.43326 5.88295 9.64794C5.8608 9.83271 5.95421 10.0106 6.08005 10.1397C6.3162 10.3866 6.62773 10.5416 6.93719 10.6761C7.4047 10.8751 7.89643 11.0096 8.39112 11.1217C9.42024 11.3579 10.4738 11.4602 11.5251 11.5381C11.5251 12.2317 11.5258 12.9255 11.5251 13.6194C11.5289 14.1303 11.5102 14.641 11.5175 15.1519C11.5383 16.2109 11.5127 17.27 11.5301 18.329C12.0015 18.3338 12.4729 18.3327 12.9443 18.3322C12.9452 20.4235 12.9445 22.5147 12.9447 24.606C12.9395 24.815 12.9562 25.0249 12.9354 25.2334C10.7339 24.1184 8.60375 22.8251 6.74809 21.1882C6.18328 20.6885 5.6372 20.1646 5.15028 19.5876C4.61265 18.9539 4.12915 18.2671 3.77447 17.5132C3.44262 16.8043 3.22885 16.0289 3.2357 15.2421C3.22222 11.3328 3.24735 7.42344 3.22656 3.51388Z" fill="#F2F2F2"/>
<path d="M14.5604 3.51661C14.8142 3.50427 15.0684 3.50998 15.3223 3.50838C16.6924 3.50861 18.0625 3.50953 19.4329 3.50838C19.4991 3.50975 19.5656 3.5093 19.6316 3.49971C19.9598 3.494 20.2893 3.49034 20.6171 3.50153C20.7454 3.52803 20.8783 3.50679 21.009 3.51364C21.6215 3.51432 22.2343 3.51387 22.8471 3.51432C22.832 7.22564 22.8493 10.9372 22.8407 14.6485C22.8366 15.0913 22.8578 15.5376 22.7797 15.9761C22.6417 16.8301 22.2845 17.6349 21.8259 18.3635C21.0524 19.5885 20.0139 20.6199 18.908 21.5454C17.1223 23.0377 15.1106 24.2347 13.0389 25.2832C13.0051 25.2661 12.9711 25.2501 12.9375 25.2334C12.9583 25.0249 12.9416 24.815 12.9469 24.606C12.9466 22.5147 12.9473 20.4235 12.9464 18.3322C13.4811 18.3278 14.0157 18.3386 14.5504 18.3292C14.5495 16.257 14.5508 14.1851 14.5499 12.1129C14.552 11.9211 14.5385 11.7274 14.5634 11.5367C15.4322 11.4949 16.2989 11.4004 17.1561 11.2517C17.6839 11.156 18.2099 11.0411 18.7205 10.8748C19.0775 10.7565 19.4322 10.6213 19.7533 10.4233C19.9828 10.286 20.1934 10.0992 20.3014 9.84982C20.3065 9.73951 20.3149 9.62509 20.2969 9.51638C20.1464 9.2044 19.8492 8.99656 19.5484 8.84377C18.8815 8.51215 18.1537 8.3251 17.4258 8.18281C16.6022 8.01975 15.7666 7.92542 14.9295 7.86581C14.9284 7.97864 14.9302 8.09169 14.9345 8.20451C15.4927 8.22735 16.0491 8.28148 16.6031 8.35091C17.0615 8.40938 17.519 8.47926 17.97 8.58044C18.3556 8.67134 18.745 8.76977 19.0997 8.95089C19.2458 9.03105 19.4098 9.12355 19.4712 9.28867C19.5171 9.42091 19.4297 9.55383 19.3301 9.63422C19.1086 9.81145 18.8361 9.90601 18.5698 9.99302C17.7885 10.2349 16.974 10.342 16.1637 10.4329C15.0955 10.5487 14.0207 10.5871 12.9469 10.5807C12.9464 10.2719 12.9475 9.9631 12.9464 9.65432C13.4811 9.65387 14.0157 9.65387 14.5504 9.65295C14.5483 7.68675 14.5527 5.72078 14.5488 3.75459C14.5497 3.67511 14.549 3.5954 14.5604 3.51661Z" fill="#BFBFBF"/>
</g>
<defs>
<linearGradient id="paint0_linear_4074_220789" x1="13.0047" y1="13.2227" x2="13.0388" y2="28.5345" gradientUnits="userSpaceOnUse">
<stop stop-color="#26A69A"/>
<stop offset="1" stop-color="#26A69A" stop-opacity="0"/>
</linearGradient>
<clipPath id="clip0_4074_220789">
<rect width="25.6024" height="28.069" fill="white" transform="translate(0.25 0.465576)"/>
</clipPath>
</defs>
</svg>
